<?xml version="1.0" encoding="UTF-8" standalone="no"?>
<!DOCTYPE svg PUBLIC "-//W3C//DTD SVG 1.1//EN" "http://www.w3.org/Graphics/SVG/1.1/DTD/svg11.dtd">
<svg width="100%" height="100%" viewBox="0 0 144 144" version="1.1" xmlns="http://www.w3.org/2000/svg" xmlns:xlink="http://www.w3.org/1999/xlink" xml:space="preserve" xmlns:serif="http://www.serif.com/" style="fill-rule:evenodd;clip-rule:evenodd;stroke-linejoin:round;stroke-miterlimit:1.41421;">
  <g>
    <path d="M36.744,68.446c-0.49,-0.514 -1.059,-0.915 -1.708,-1.203c-0.649,-0.287 -1.317,-0.431 -2.002,-0.431c-0.906,0 -1.739,0.22 -2.498,0.661c-0.759,0.441 -1.359,1.038 -1.8,1.791c-0.441,0.753 -0.662,1.582 -0.662,2.489c0,0.893 0.221,1.72 0.662,2.479c0.441,0.759 1.041,1.359 1.8,1.8c0.759,0.441 1.592,0.661 2.498,0.661c0.673,0 1.334,-0.137 1.983,-0.413c0.649,-0.275 1.225,-0.652 1.727,-1.129l1.065,1.157c-0.649,0.636 -1.402,1.135 -2.259,1.497c-0.857,0.361 -1.727,0.541 -2.608,0.541c-1.225,0 -2.345,-0.29 -3.361,-0.872c-1.017,-0.582 -1.819,-1.374 -2.407,-2.379c-0.587,-1.004 -0.881,-2.112 -0.881,-3.324c0,-1.2 0.297,-2.299 0.891,-3.297c0.594,-0.998 1.405,-1.785 2.433,-2.36c1.029,-0.576 2.162,-0.863 3.398,-0.863c0.894,0 1.761,0.168 2.599,0.505c0.839,0.336 1.565,0.811 2.177,1.423l-1.047,1.267Z" style="fill-rule:nonzero;"/>
    <path d="M59.574,65.361l-4.812,8.449l0,4.408l-1.763,0l0,-4.335l-4.886,-8.522l1.8,0l3.968,6.557l3.893,-6.557l1.8,0Z" style="fill-rule:nonzero;"/>
  </g>
  <path d="M107.682,80.575l-1.813,-4.163l-9.036,0l-1.788,4.163l-2.474,0l7.617,-17.143l2.449,0l7.592,17.143l-2.547,0Zm-9.919,-6.294l7.2,0l-3.624,-8.326l-3.576,8.326Z" style="fill-rule:nonzero;"/>
  <circle cx="72" cy="71.936" r="3.673" style="fill:url(#_Linear1);"/>
  <path d="M144,87.588l-4.623,11.557l-8.19,-4.096l0,16.115l-18.872,11.324l0,9.501l-21.606,11.884l-18.709,-12.162l-18.709,12.162l-21.606,-11.884l0,-9.501l-18.872,-11.324l0,-16.115l-8.19,4.096l-4.623,-11.557l5.646,0l1.728,4.32l6.79,-3.395l1.519,-0.925l10.082,0l-7.71,4.693l0,15.915l13.63,8.178l0,-19.93l5.242,0l0,28.832l0,0l0,3.614l16.139,8.876l16.262,-10.57l0,-39.608l5.344,0l0,39.608l16.262,10.57l16.139,-8.876l0,-3.614l0,0l0,-28.832l5.242,0l0,19.93l13.63,-8.178l0,-15.915l-7.71,-4.693l10.082,0l1.519,0.925l6.79,3.395l1.728,-4.32l5.646,0Zm-88.2,1.983l0,32.167l-5.243,0l0,-29.693l-5.412,-4.457l8.247,0l2.408,1.983Zm37.643,2.474l0,29.693l-5.243,0l0,-32.167l2.408,-1.983l8.247,0l-5.412,4.457Zm-93.443,-35.761l4.623,-11.556l8.19,4.095l0,-16.115l18.872,-11.323l0,-9.502l21.606,-11.883l18.709,12.161l18.709,-12.161l21.606,11.883l0,9.502l18.872,11.323l0,16.115l8.19,-4.095l4.623,11.556l-5.646,0l-1.728,-4.32l-6.791,3.396l-1.518,0.924l-10.082,0l7.71,-4.693l0,-15.915l-13.63,-8.178l0,20.638l-5.242,0l0,-28.832l0,0l0,-4.321c-5.38,-2.959 -10.76,-5.918 -16.139,-8.877l-16.262,10.571l0,39.607l-5.344,0l0,-39.607l-16.262,-10.571c-5.379,2.959 -10.759,5.918 -16.139,8.877l0,4.321l0,0l0,28.832l-5.242,0l0,-20.638l-13.63,8.178l0,15.915l7.71,4.693l-10.082,0l-1.518,-0.924l-6.791,-3.396l-1.728,4.32l-5.646,0Zm45.145,0l5.412,-4.457l0,-29.692l5.243,0c0,10.722 0,21.444 0,32.166l-2.408,1.983l-8.247,0Zm45.463,0l-2.408,-1.983l0,-32.166l5.243,0l0,29.692l5.412,4.457l-8.247,0Z" style="fill:url(#_Linear2);fill-rule:nonzero;"/>
  <defs>
    <linearGradient id="_Linear1" x1="0" y1="0" x2="1" y2="0" gradientUnits="userSpaceOnUse" gradientTransform="matrix(144,-0.843502,0.843502,144,-3.41061e-13,72.7798)">
      <stop offset="0" style="stop-color:#fc4d40;stop-opacity:1"/>
      <stop offset="0.25" style="stop-color:#ee3059;stop-opacity:1"/>
      <stop offset="0.54" style="stop-color:#d92d83;stop-opacity:1"/>
      <stop offset="0.77" style="stop-color:#b72bae;stop-opacity:1"/>
      <stop offset="1" style="stop-color:#7944be;stop-opacity:1"/>
    </linearGradient>
    <linearGradient id="_Linear2" x1="0" y1="0" x2="1" y2="0" gradientUnits="userSpaceOnUse" gradientTransform="matrix(144,0,0,143.873,0,71.9363)">
      <stop offset="0" style="stop-color:#fc4d40;stop-opacity:1"/>
      <stop offset="0.25" style="stop-color:#ee3059;stop-opacity:1"/>
      <stop offset="0.54" style="stop-color:#d92d83;stop-opacity:1"/>
      <stop offset="0.77" style="stop-color:#b72bae;stop-opacity:1"/>
      <stop offset="1" style="stop-color:#7944be;stop-opacity:1"/>
    </linearGradient>
  </defs>
</svg>